<?xml version="1.0" encoding="utf-8" standalone="no"?>
<!DOCTYPE svg PUBLIC "-//W3C//DTD SVG 1.1//EN"
  "http://www.w3.org/Graphics/SVG/1.1/DTD/svg11.dtd">
<svg xmlns:xlink="http://www.w3.org/1999/xlink" width="576pt" height="576pt" viewBox="0 0 576 576" xmlns="http://www.w3.org/2000/svg" version="1.1">
 <metadata>
  <rdf:RDF xmlns:dc="http://purl.org/dc/elements/1.1/" xmlns:cc="http://creativecommons.org/ns#" xmlns:rdf="http://www.w3.org/1999/02/22-rdf-syntax-ns#">
   <cc:Work>
    <dc:type rdf:resource="http://purl.org/dc/dcmitype/StillImage"/>
    <dc:date>2023-12-06T12:14:56.925692</dc:date>
    <dc:format>image/svg+xml</dc:format>
    <dc:creator>
     <cc:Agent>
      <dc:title>Matplotlib v3.8.2, https://matplotlib.org/</dc:title>
     </cc:Agent>
    </dc:creator>
   </cc:Work>
  </rdf:RDF>
 </metadata>
 <defs>
  <style type="text/css">*{stroke-linejoin: round; stroke-linecap: butt}</style>
 </defs>
 <g id="figure_1">
  <g id="patch_1">
   <path d="M 0 576 
L 576 576 
L 576 0 
L 0 0 
z
" style="fill: #ffffff"/>
  </g>
  <g id="axes_1">
   <g id="patch_2">
    <path d="M 72 512.64 
L 518.4 512.64 
L 518.4 69.12 
L 72 69.12 
z
" style="fill: #ffffff"/>
   </g>
   <g id="matplotlib.axis_1">
    <g id="xtick_1">
     <g id="line2d_1">
      <path d="M 72 512.64 
L 72 69.12 
" clip-path="url(#p91b7847b08)" style="fill: none; stroke: #b0b0b0; stroke-opacity: 0.8; stroke-width: 0.8; stroke-linecap: square"/>
     </g>
     <g id="line2d_2">
      <defs>
       <path id="m74f8913564" d="M 0 0 
L 0 3.5 
" style="stroke: #000000; stroke-width: 0.8"/>
      </defs>
      <g>
       <use xlink:href="#m74f8913564" x="72" y="512.64" style="stroke: #000000; stroke-width: 0.8"/>
      </g>
     </g>
     <g id="text_1">
      <!-- −1.5 -->
      <g transform="translate(59.858594 527.238438) scale(0.1 -0.1)">
       <defs>
        <path id="DejaVuSans-2212" d="M 678 2272 
L 4684 2272 
L 4684 1741 
L 678 1741 
L 678 2272 
z
" transform="scale(0.015625)"/>
        <path id="DejaVuSans-31" d="M 794 531 
L 1825 531 
L 1825 4091 
L 703 3866 
L 703 4441 
L 1819 4666 
L 2450 4666 
L 2450 531 
L 3481 531 
L 3481 0 
L 794 0 
L 794 531 
z
" transform="scale(0.015625)"/>
        <path id="DejaVuSans-2e" d="M 684 794 
L 1344 794 
L 1344 0 
L 684 0 
L 684 794 
z
" transform="scale(0.015625)"/>
        <path id="DejaVuSans-35" d="M 691 4666 
L 3169 4666 
L 3169 4134 
L 1269 4134 
L 1269 2991 
Q 1406 3038 1543 3061 
Q 1681 3084 1819 3084 
Q 2600 3084 3056 2656 
Q 3513 2228 3513 1497 
Q 3513 744 3044 326 
Q 2575 -91 1722 -91 
Q 1428 -91 1123 -41 
Q 819 9 494 109 
L 494 744 
Q 775 591 1075 516 
Q 1375 441 1709 441 
Q 2250 441 2565 725 
Q 2881 1009 2881 1497 
Q 2881 1984 2565 2268 
Q 2250 2553 1709 2553 
Q 1456 2553 1204 2497 
Q 953 2441 691 2322 
L 691 4666 
z
" transform="scale(0.015625)"/>
       </defs>
       <use xlink:href="#DejaVuSans-2212"/>
       <use xlink:href="#DejaVuSans-31" x="83.789062"/>
       <use xlink:href="#DejaVuSans-2e" x="147.412109"/>
       <use xlink:href="#DejaVuSans-35" x="179.199219"/>
      </g>
     </g>
    </g>
    <g id="xtick_2">
     <g id="line2d_3">
      <path d="M 146.4 512.64 
L 146.4 69.12 
" clip-path="url(#p91b7847b08)" style="fill: none; stroke: #b0b0b0; stroke-opacity: 0.8; stroke-width: 0.8; stroke-linecap: square"/>
     </g>
     <g id="line2d_4">
      <g>
       <use xlink:href="#m74f8913564" x="146.4" y="512.64" style="stroke: #000000; stroke-width: 0.8"/>
      </g>
     </g>
     <g id="text_2">
      <!-- −1.0 -->
      <g transform="translate(134.258594 527.238438) scale(0.1 -0.1)">
       <defs>
        <path id="DejaVuSans-30" d="M 2034 4250 
Q 1547 4250 1301 3770 
Q 1056 3291 1056 2328 
Q 1056 1369 1301 889 
Q 1547 409 2034 409 
Q 2525 409 2770 889 
Q 3016 1369 3016 2328 
Q 3016 3291 2770 3770 
Q 2525 4250 2034 4250 
z
M 2034 4750 
Q 2819 4750 3233 4129 
Q 3647 3509 3647 2328 
Q 3647 1150 3233 529 
Q 2819 -91 2034 -91 
Q 1250 -91 836 529 
Q 422 1150 422 2328 
Q 422 3509 836 4129 
Q 1250 4750 2034 4750 
z
" transform="scale(0.015625)"/>
       </defs>
       <use xlink:href="#DejaVuSans-2212"/>
       <use xlink:href="#DejaVuSans-31" x="83.789062"/>
       <use xlink:href="#DejaVuSans-2e" x="147.412109"/>
       <use xlink:href="#DejaVuSans-30" x="179.199219"/>
      </g>
     </g>
    </g>
    <g id="xtick_3">
     <g id="line2d_5">
      <path d="M 220.8 512.64 
L 220.8 69.12 
" clip-path="url(#p91b7847b08)" style="fill: none; stroke: #b0b0b0; stroke-opacity: 0.8; stroke-width: 0.8; stroke-linecap: square"/>
     </g>
     <g id="line2d_6">
      <g>
       <use xlink:href="#m74f8913564" x="220.8" y="512.64" style="stroke: #000000; stroke-width: 0.8"/>
      </g>
     </g>
     <g id="text_3">
      <!-- −0.5 -->
      <g transform="translate(208.658594 527.238438) scale(0.1 -0.1)">
       <use xlink:href="#DejaVuSans-2212"/>
       <use xlink:href="#DejaVuSans-30" x="83.789062"/>
       <use xlink:href="#DejaVuSans-2e" x="147.412109"/>
       <use xlink:href="#DejaVuSans-35" x="179.199219"/>
      </g>
     </g>
    </g>
    <g id="xtick_4">
     <g id="line2d_7">
      <path d="M 295.2 512.64 
L 295.2 69.12 
" clip-path="url(#p91b7847b08)" style="fill: none; stroke: #b0b0b0; stroke-opacity: 0.8; stroke-width: 0.8; stroke-linecap: square"/>
     </g>
     <g id="line2d_8">
      <g>
       <use xlink:href="#m74f8913564" x="295.2" y="512.64" style="stroke: #000000; stroke-width: 0.8"/>
      </g>
     </g>
     <g id="text_4">
      <!-- 0.0 -->
      <g transform="translate(287.248437 527.238438) scale(0.1 -0.1)">
       <use xlink:href="#DejaVuSans-30"/>
       <use xlink:href="#DejaVuSans-2e" x="63.623047"/>
       <use xlink:href="#DejaVuSans-30" x="95.410156"/>
      </g>
     </g>
    </g>
    <g id="xtick_5">
     <g id="line2d_9">
      <path d="M 369.6 512.64 
L 369.6 69.12 
" clip-path="url(#p91b7847b08)" style="fill: none; stroke: #b0b0b0; stroke-opacity: 0.8; stroke-width: 0.8; stroke-linecap: square"/>
     </g>
     <g id="line2d_10">
      <g>
       <use xlink:href="#m74f8913564" x="369.6" y="512.64" style="stroke: #000000; stroke-width: 0.8"/>
      </g>
     </g>
     <g id="text_5">
      <!-- 0.5 -->
      <g transform="translate(361.648437 527.238438) scale(0.1 -0.1)">
       <use xlink:href="#DejaVuSans-30"/>
       <use xlink:href="#DejaVuSans-2e" x="63.623047"/>
       <use xlink:href="#DejaVuSans-35" x="95.410156"/>
      </g>
     </g>
    </g>
    <g id="xtick_6">
     <g id="line2d_11">
      <path d="M 444 512.64 
L 444 69.12 
" clip-path="url(#p91b7847b08)" style="fill: none; stroke: #b0b0b0; stroke-opacity: 0.8; stroke-width: 0.8; stroke-linecap: square"/>
     </g>
     <g id="line2d_12">
      <g>
       <use xlink:href="#m74f8913564" x="444" y="512.64" style="stroke: #000000; stroke-width: 0.8"/>
      </g>
     </g>
     <g id="text_6">
      <!-- 1.0 -->
      <g transform="translate(436.048437 527.238438) scale(0.1 -0.1)">
       <use xlink:href="#DejaVuSans-31"/>
       <use xlink:href="#DejaVuSans-2e" x="63.623047"/>
       <use xlink:href="#DejaVuSans-30" x="95.410156"/>
      </g>
     </g>
    </g>
    <g id="xtick_7">
     <g id="line2d_13">
      <path d="M 518.4 512.64 
L 518.4 69.12 
" clip-path="url(#p91b7847b08)" style="fill: none; stroke: #b0b0b0; stroke-opacity: 0.8; stroke-width: 0.8; stroke-linecap: square"/>
     </g>
     <g id="line2d_14">
      <g>
       <use xlink:href="#m74f8913564" x="518.4" y="512.64" style="stroke: #000000; stroke-width: 0.8"/>
      </g>
     </g>
     <g id="text_7">
      <!-- 1.5 -->
      <g transform="translate(510.448437 527.238438) scale(0.1 -0.1)">
       <use xlink:href="#DejaVuSans-31"/>
       <use xlink:href="#DejaVuSans-2e" x="63.623047"/>
       <use xlink:href="#DejaVuSans-35" x="95.410156"/>
      </g>
     </g>
    </g>
    <g id="xtick_8">
     <g id="line2d_15">
      <path d="M 86.88 512.64 
L 86.88 69.12 
" clip-path="url(#p91b7847b08)" style="fill: none; stroke-dasharray: 2.96,1.28; stroke-dashoffset: 0; stroke: #b0b0b0; stroke-opacity: 0.4; stroke-width: 0.8"/>
     </g>
     <g id="line2d_16">
      <defs>
       <path id="m1b1252484a" d="M 0 0 
L 0 2 
" style="stroke: #000000; stroke-width: 0.6"/>
      </defs>
      <g>
       <use xlink:href="#m1b1252484a" x="86.88" y="512.64" style="stroke: #000000; stroke-width: 0.6"/>
      </g>
     </g>
    </g>
    <g id="xtick_9">
     <g id="line2d_17">
      <path d="M 101.76 512.64 
L 101.76 69.12 
" clip-path="url(#p91b7847b08)" style="fill: none; stroke-dasharray: 2.96,1.28; stroke-dashoffset: 0; stroke: #b0b0b0; stroke-opacity: 0.4; stroke-width: 0.8"/>
     </g>
     <g id="line2d_18">
      <g>
       <use xlink:href="#m1b1252484a" x="101.76" y="512.64" style="stroke: #000000; stroke-width: 0.6"/>
      </g>
     </g>
    </g>
    <g id="xtick_10">
     <g id="line2d_19">
      <path d="M 116.64 512.64 
L 116.64 69.12 
" clip-path="url(#p91b7847b08)" style="fill: none; stroke-dasharray: 2.96,1.28; stroke-dashoffset: 0; stroke: #b0b0b0; stroke-opacity: 0.4; stroke-width: 0.8"/>
     </g>
     <g id="line2d_20">
      <g>
       <use xlink:href="#m1b1252484a" x="116.64" y="512.64" style="stroke: #000000; stroke-width: 0.6"/>
      </g>
     </g>
    </g>
    <g id="xtick_11">
     <g id="line2d_21">
      <path d="M 131.52 512.64 
L 131.52 69.12 
" clip-path="url(#p91b7847b08)" style="fill: none; stroke-dasharray: 2.96,1.28; stroke-dashoffset: 0; stroke: #b0b0b0; stroke-opacity: 0.4; stroke-width: 0.8"/>
     </g>
     <g id="line2d_22">
      <g>
       <use xlink:href="#m1b1252484a" x="131.52" y="512.64" style="stroke: #000000; stroke-width: 0.6"/>
      </g>
     </g>
    </g>
    <g id="xtick_12">
     <g id="line2d_23">
      <path d="M 161.28 512.64 
L 161.28 69.12 
" clip-path="url(#p91b7847b08)" style="fill: none; stroke-dasharray: 2.96,1.28; stroke-dashoffset: 0; stroke: #b0b0b0; stroke-opacity: 0.4; stroke-width: 0.8"/>
     </g>
     <g id="line2d_24">
      <g>
       <use xlink:href="#m1b1252484a" x="161.28" y="512.64" style="stroke: #000000; stroke-width: 0.6"/>
      </g>
     </g>
    </g>
    <g id="xtick_13">
     <g id="line2d_25">
      <path d="M 176.16 512.64 
L 176.16 69.12 
" clip-path="url(#p91b7847b08)" style="fill: none; stroke-dasharray: 2.96,1.28; stroke-dashoffset: 0; stroke: #b0b0b0; stroke-opacity: 0.4; stroke-width: 0.8"/>
     </g>
     <g id="line2d_26">
      <g>
       <use xlink:href="#m1b1252484a" x="176.16" y="512.64" style="stroke: #000000; stroke-width: 0.6"/>
      </g>
     </g>
    </g>
    <g id="xtick_14">
     <g id="line2d_27">
      <path d="M 191.04 512.64 
L 191.04 69.12 
" clip-path="url(#p91b7847b08)" style="fill: none; stroke-dasharray: 2.96,1.28; stroke-dashoffset: 0; stroke: #b0b0b0; stroke-opacity: 0.4; stroke-width: 0.8"/>
     </g>
     <g id="line2d_28">
      <g>
       <use xlink:href="#m1b1252484a" x="191.04" y="512.64" style="stroke: #000000; stroke-width: 0.6"/>
      </g>
     </g>
    </g>
    <g id="xtick_15">
     <g id="line2d_29">
      <path d="M 205.92 512.64 
L 205.92 69.12 
" clip-path="url(#p91b7847b08)" style="fill: none; stroke-dasharray: 2.96,1.28; stroke-dashoffset: 0; stroke: #b0b0b0; stroke-opacity: 0.4; stroke-width: 0.8"/>
     </g>
     <g id="line2d_30">
      <g>
       <use xlink:href="#m1b1252484a" x="205.92" y="512.64" style="stroke: #000000; stroke-width: 0.6"/>
      </g>
     </g>
    </g>
    <g id="xtick_16">
     <g id="line2d_31">
      <path d="M 235.68 512.64 
L 235.68 69.12 
" clip-path="url(#p91b7847b08)" style="fill: none; stroke-dasharray: 2.96,1.28; stroke-dashoffset: 0; stroke: #b0b0b0; stroke-opacity: 0.4; stroke-width: 0.8"/>
     </g>
     <g id="line2d_32">
      <g>
       <use xlink:href="#m1b1252484a" x="235.68" y="512.64" style="stroke: #000000; stroke-width: 0.6"/>
      </g>
     </g>
    </g>
    <g id="xtick_17">
     <g id="line2d_33">
      <path d="M 250.56 512.64 
L 250.56 69.12 
" clip-path="url(#p91b7847b08)" style="fill: none; stroke-dasharray: 2.96,1.28; stroke-dashoffset: 0; stroke: #b0b0b0; stroke-opacity: 0.4; stroke-width: 0.8"/>
     </g>
     <g id="line2d_34">
      <g>
       <use xlink:href="#m1b1252484a" x="250.56" y="512.64" style="stroke: #000000; stroke-width: 0.6"/>
      </g>
     </g>
    </g>
    <g id="xtick_18">
     <g id="line2d_35">
      <path d="M 265.44 512.64 
L 265.44 69.12 
" clip-path="url(#p91b7847b08)" style="fill: none; stroke-dasharray: 2.96,1.28; stroke-dashoffset: 0; stroke: #b0b0b0; stroke-opacity: 0.4; stroke-width: 0.8"/>
     </g>
     <g id="line2d_36">
      <g>
       <use xlink:href="#m1b1252484a" x="265.44" y="512.64" style="stroke: #000000; stroke-width: 0.6"/>
      </g>
     </g>
    </g>
    <g id="xtick_19">
     <g id="line2d_37">
      <path d="M 280.32 512.64 
L 280.32 69.12 
" clip-path="url(#p91b7847b08)" style="fill: none; stroke-dasharray: 2.96,1.28; stroke-dashoffset: 0; stroke: #b0b0b0; stroke-opacity: 0.4; stroke-width: 0.8"/>
     </g>
     <g id="line2d_38">
      <g>
       <use xlink:href="#m1b1252484a" x="280.32" y="512.64" style="stroke: #000000; stroke-width: 0.6"/>
      </g>
     </g>
    </g>
    <g id="xtick_20">
     <g id="line2d_39">
      <path d="M 310.08 512.64 
L 310.08 69.12 
" clip-path="url(#p91b7847b08)" style="fill: none; stroke-dasharray: 2.96,1.28; stroke-dashoffset: 0; stroke: #b0b0b0; stroke-opacity: 0.4; stroke-width: 0.8"/>
     </g>
     <g id="line2d_40">
      <g>
       <use xlink:href="#m1b1252484a" x="310.08" y="512.64" style="stroke: #000000; stroke-width: 0.6"/>
      </g>
     </g>
    </g>
    <g id="xtick_21">
     <g id="line2d_41">
      <path d="M 324.96 512.64 
L 324.96 69.12 
" clip-path="url(#p91b7847b08)" style="fill: none; stroke-dasharray: 2.96,1.28; stroke-dashoffset: 0; stroke: #b0b0b0; stroke-opacity: 0.4; stroke-width: 0.8"/>
     </g>
     <g id="line2d_42">
      <g>
       <use xlink:href="#m1b1252484a" x="324.96" y="512.64" style="stroke: #000000; stroke-width: 0.6"/>
      </g>
     </g>
    </g>
    <g id="xtick_22">
     <g id="line2d_43">
      <path d="M 339.84 512.64 
L 339.84 69.12 
" clip-path="url(#p91b7847b08)" style="fill: none; stroke-dasharray: 2.96,1.28; stroke-dashoffset: 0; stroke: #b0b0b0; stroke-opacity: 0.4; stroke-width: 0.8"/>
     </g>
     <g id="line2d_44">
      <g>
       <use xlink:href="#m1b1252484a" x="339.84" y="512.64" style="stroke: #000000; stroke-width: 0.6"/>
      </g>
     </g>
    </g>
    <g id="xtick_23">
     <g id="line2d_45">
      <path d="M 354.72 512.64 
L 354.72 69.12 
" clip-path="url(#p91b7847b08)" style="fill: none; stroke-dasharray: 2.96,1.28; stroke-dashoffset: 0; stroke: #b0b0b0; stroke-opacity: 0.4; stroke-width: 0.8"/>
     </g>
     <g id="line2d_46">
      <g>
       <use xlink:href="#m1b1252484a" x="354.72" y="512.64" style="stroke: #000000; stroke-width: 0.6"/>
      </g>
     </g>
    </g>
    <g id="xtick_24">
     <g id="line2d_47">
      <path d="M 384.48 512.64 
L 384.48 69.12 
" clip-path="url(#p91b7847b08)" style="fill: none; stroke-dasharray: 2.96,1.28; stroke-dashoffset: 0; stroke: #b0b0b0; stroke-opacity: 0.4; stroke-width: 0.8"/>
     </g>
     <g id="line2d_48">
      <g>
       <use xlink:href="#m1b1252484a" x="384.48" y="512.64" style="stroke: #000000; stroke-width: 0.6"/>
      </g>
     </g>
    </g>
    <g id="xtick_25">
     <g id="line2d_49">
      <path d="M 399.36 512.64 
L 399.36 69.12 
" clip-path="url(#p91b7847b08)" style="fill: none; stroke-dasharray: 2.96,1.28; stroke-dashoffset: 0; stroke: #b0b0b0; stroke-opacity: 0.4; stroke-width: 0.8"/>
     </g>
     <g id="line2d_50">
      <g>
       <use xlink:href="#m1b1252484a" x="399.36" y="512.64" style="stroke: #000000; stroke-width: 0.6"/>
      </g>
     </g>
    </g>
    <g id="xtick_26">
     <g id="line2d_51">
      <path d="M 414.24 512.64 
L 414.24 69.12 
" clip-path="url(#p91b7847b08)" style="fill: none; stroke-dasharray: 2.96,1.28; stroke-dashoffset: 0; stroke: #b0b0b0; stroke-opacity: 0.4; stroke-width: 0.8"/>
     </g>
     <g id="line2d_52">
      <g>
       <use xlink:href="#m1b1252484a" x="414.24" y="512.64" style="stroke: #000000; stroke-width: 0.6"/>
      </g>
     </g>
    </g>
    <g id="xtick_27">
     <g id="line2d_53">
      <path d="M 429.12 512.64 
L 429.12 69.12 
" clip-path="url(#p91b7847b08)" style="fill: none; stroke-dasharray: 2.96,1.28; stroke-dashoffset: 0; stroke: #b0b0b0; stroke-opacity: 0.4; stroke-width: 0.8"/>
     </g>
     <g id="line2d_54">
      <g>
       <use xlink:href="#m1b1252484a" x="429.12" y="512.64" style="stroke: #000000; stroke-width: 0.6"/>
      </g>
     </g>
    </g>
    <g id="xtick_28">
     <g id="line2d_55">
      <path d="M 458.88 512.64 
L 458.88 69.12 
" clip-path="url(#p91b7847b08)" style="fill: none; stroke-dasharray: 2.96,1.28; stroke-dashoffset: 0; stroke: #b0b0b0; stroke-opacity: 0.4; stroke-width: 0.8"/>
     </g>
     <g id="line2d_56">
      <g>
       <use xlink:href="#m1b1252484a" x="458.88" y="512.64" style="stroke: #000000; stroke-width: 0.6"/>
      </g>
     </g>
    </g>
    <g id="xtick_29">
     <g id="line2d_57">
      <path d="M 473.76 512.64 
L 473.76 69.12 
" clip-path="url(#p91b7847b08)" style="fill: none; stroke-dasharray: 2.96,1.28; stroke-dashoffset: 0; stroke: #b0b0b0; stroke-opacity: 0.4; stroke-width: 0.8"/>
     </g>
     <g id="line2d_58">
      <g>
       <use xlink:href="#m1b1252484a" x="473.76" y="512.64" style="stroke: #000000; stroke-width: 0.6"/>
      </g>
     </g>
    </g>
    <g id="xtick_30">
     <g id="line2d_59">
      <path d="M 488.64 512.64 
L 488.64 69.12 
" clip-path="url(#p91b7847b08)" style="fill: none; stroke-dasharray: 2.96,1.28; stroke-dashoffset: 0; stroke: #b0b0b0; stroke-opacity: 0.4; stroke-width: 0.8"/>
     </g>
     <g id="line2d_60">
      <g>
       <use xlink:href="#m1b1252484a" x="488.64" y="512.64" style="stroke: #000000; stroke-width: 0.6"/>
      </g>
     </g>
    </g>
    <g id="xtick_31">
     <g id="line2d_61">
      <path d="M 503.52 512.64 
L 503.52 69.12 
" clip-path="url(#p91b7847b08)" style="fill: none; stroke-dasharray: 2.96,1.28; stroke-dashoffset: 0; stroke: #b0b0b0; stroke-opacity: 0.4; stroke-width: 0.8"/>
     </g>
     <g id="line2d_62">
      <g>
       <use xlink:href="#m1b1252484a" x="503.52" y="512.64" style="stroke: #000000; stroke-width: 0.6"/>
      </g>
     </g>
    </g>
    <g id="text_8">
     <!-- $x$ -->
     <g transform="translate(292.2 540.916563) scale(0.1 -0.1)">
      <defs>
       <path id="DejaVuSans-Oblique-78" d="M 3841 3500 
L 2234 1784 
L 3219 0 
L 2559 0 
L 1819 1388 
L 531 0 
L -166 0 
L 1556 1844 
L 641 3500 
L 1300 3500 
L 1972 2234 
L 3144 3500 
L 3841 3500 
z
" transform="scale(0.015625)"/>
      </defs>
      <use xlink:href="#DejaVuSans-Oblique-78" transform="translate(0 0.3125)"/>
     </g>
    </g>
   </g>
   <g id="matplotlib.axis_2">
    <g id="ytick_1">
     <g id="line2d_63">
      <path d="M 72 512.64 
L 518.4 512.64 
" clip-path="url(#p91b7847b08)" style="fill: none; stroke: #b0b0b0; stroke-opacity: 0.8; stroke-width: 0.8; stroke-linecap: square"/>
     </g>
     <g id="line2d_64">
      <defs>
       <path id="m36d6c16817" d="M 0 0 
L -3.5 0 
" style="stroke: #000000; stroke-width: 0.8"/>
      </defs>
      <g>
       <use xlink:href="#m36d6c16817" x="72" y="512.64" style="stroke: #000000; stroke-width: 0.8"/>
      </g>
     </g>
     <g id="text_9">
      <!-- −1.5 -->
      <g transform="translate(40.717187 516.439219) scale(0.1 -0.1)">
       <use xlink:href="#DejaVuSans-2212"/>
       <use xlink:href="#DejaVuSans-31" x="83.789062"/>
       <use xlink:href="#DejaVuSans-2e" x="147.412109"/>
       <use xlink:href="#DejaVuSans-35" x="179.199219"/>
      </g>
     </g>
    </g>
    <g id="ytick_2">
     <g id="line2d_65">
      <path d="M 72 438.72 
L 518.4 438.72 
" clip-path="url(#p91b7847b08)" style="fill: none; stroke: #b0b0b0; stroke-opacity: 0.8; stroke-width: 0.8; stroke-linecap: square"/>
     </g>
     <g id="line2d_66">
      <g>
       <use xlink:href="#m36d6c16817" x="72" y="438.72" style="stroke: #000000; stroke-width: 0.8"/>
      </g>
     </g>
     <g id="text_10">
      <!-- −1.0 -->
      <g transform="translate(40.717187 442.519219) scale(0.1 -0.1)">
       <use xlink:href="#DejaVuSans-2212"/>
       <use xlink:href="#DejaVuSans-31" x="83.789062"/>
       <use xlink:href="#DejaVuSans-2e" x="147.412109"/>
       <use xlink:href="#DejaVuSans-30" x="179.199219"/>
      </g>
     </g>
    </g>
    <g id="ytick_3">
     <g id="line2d_67">
      <path d="M 72 364.8 
L 518.4 364.8 
" clip-path="url(#p91b7847b08)" style="fill: none; stroke: #b0b0b0; stroke-opacity: 0.8; stroke-width: 0.8; stroke-linecap: square"/>
     </g>
     <g id="line2d_68">
      <g>
       <use xlink:href="#m36d6c16817" x="72" y="364.8" style="stroke: #000000; stroke-width: 0.8"/>
      </g>
     </g>
     <g id="text_11">
      <!-- −0.5 -->
      <g transform="translate(40.717187 368.599219) scale(0.1 -0.1)">
       <use xlink:href="#DejaVuSans-2212"/>
       <use xlink:href="#DejaVuSans-30" x="83.789062"/>
       <use xlink:href="#DejaVuSans-2e" x="147.412109"/>
       <use xlink:href="#DejaVuSans-35" x="179.199219"/>
      </g>
     </g>
    </g>
    <g id="ytick_4">
     <g id="line2d_69">
      <path d="M 72 290.88 
L 518.4 290.88 
" clip-path="url(#p91b7847b08)" style="fill: none; stroke: #b0b0b0; stroke-opacity: 0.8; stroke-width: 0.8; stroke-linecap: square"/>
     </g>
     <g id="line2d_70">
      <g>
       <use xlink:href="#m36d6c16817" x="72" y="290.88" style="stroke: #000000; stroke-width: 0.8"/>
      </g>
     </g>
     <g id="text_12">
      <!-- 0.0 -->
      <g transform="translate(49.096875 294.679219) scale(0.1 -0.1)">
       <use xlink:href="#DejaVuSans-30"/>
       <use xlink:href="#DejaVuSans-2e" x="63.623047"/>
       <use xlink:href="#DejaVuSans-30" x="95.410156"/>
      </g>
     </g>
    </g>
    <g id="ytick_5">
     <g id="line2d_71">
      <path d="M 72 216.96 
L 518.4 216.96 
" clip-path="url(#p91b7847b08)" style="fill: none; stroke: #b0b0b0; stroke-opacity: 0.8; stroke-width: 0.8; stroke-linecap: square"/>
     </g>
     <g id="line2d_72">
      <g>
       <use xlink:href="#m36d6c16817" x="72" y="216.96" style="stroke: #000000; stroke-width: 0.8"/>
      </g>
     </g>
     <g id="text_13">
      <!-- 0.5 -->
      <g transform="translate(49.096875 220.759219) scale(0.1 -0.1)">
       <use xlink:href="#DejaVuSans-30"/>
       <use xlink:href="#DejaVuSans-2e" x="63.623047"/>
       <use xlink:href="#DejaVuSans-35" x="95.410156"/>
      </g>
     </g>
    </g>
    <g id="ytick_6">
     <g id="line2d_73">
      <path d="M 72 143.04 
L 518.4 143.04 
" clip-path="url(#p91b7847b08)" style="fill: none; stroke: #b0b0b0; stroke-opacity: 0.8; stroke-width: 0.8; stroke-linecap: square"/>
     </g>
     <g id="line2d_74">
      <g>
       <use xlink:href="#m36d6c16817" x="72" y="143.04" style="stroke: #000000; stroke-width: 0.8"/>
      </g>
     </g>
     <g id="text_14">
      <!-- 1.0 -->
      <g transform="translate(49.096875 146.839219) scale(0.1 -0.1)">
       <use xlink:href="#DejaVuSans-31"/>
       <use xlink:href="#DejaVuSans-2e" x="63.623047"/>
       <use xlink:href="#DejaVuSans-30" x="95.410156"/>
      </g>
     </g>
    </g>
    <g id="ytick_7">
     <g id="line2d_75">
      <path d="M 72 69.12 
L 518.4 69.12 
" clip-path="url(#p91b7847b08)" style="fill: none; stroke: #b0b0b0; stroke-opacity: 0.8; stroke-width: 0.8; stroke-linecap: square"/>
     </g>
     <g id="line2d_76">
      <g>
       <use xlink:href="#m36d6c16817" x="72" y="69.12" style="stroke: #000000; stroke-width: 0.8"/>
      </g>
     </g>
     <g id="text_15">
      <!-- 1.5 -->
      <g transform="translate(49.096875 72.919219) scale(0.1 -0.1)">
       <use xlink:href="#DejaVuSans-31"/>
       <use xlink:href="#DejaVuSans-2e" x="63.623047"/>
       <use xlink:href="#DejaVuSans-35" x="95.410156"/>
      </g>
     </g>
    </g>
    <g id="ytick_8">
     <g id="line2d_77">
      <path d="M 72 497.856 
L 518.4 497.856 
" clip-path="url(#p91b7847b08)" style="fill: none; stroke-dasharray: 2.96,1.28; stroke-dashoffset: 0; stroke: #b0b0b0; stroke-opacity: 0.4; stroke-width: 0.8"/>
     </g>
     <g id="line2d_78">
      <defs>
       <path id="m61e1300866" d="M 0 0 
L -2 0 
" style="stroke: #000000; stroke-width: 0.6"/>
      </defs>
      <g>
       <use xlink:href="#m61e1300866" x="72" y="497.856" style="stroke: #000000; stroke-width: 0.6"/>
      </g>
     </g>
    </g>
    <g id="ytick_9">
     <g id="line2d_79">
      <path d="M 72 483.072 
L 518.4 483.072 
" clip-path="url(#p91b7847b08)" style="fill: none; stroke-dasharray: 2.96,1.28; stroke-dashoffset: 0; stroke: #b0b0b0; stroke-opacity: 0.4; stroke-width: 0.8"/>
     </g>
     <g id="line2d_80">
      <g>
       <use xlink:href="#m61e1300866" x="72" y="483.072" style="stroke: #000000; stroke-width: 0.6"/>
      </g>
     </g>
    </g>
    <g id="ytick_10">
     <g id="line2d_81">
      <path d="M 72 468.288 
L 518.4 468.288 
" clip-path="url(#p91b7847b08)" style="fill: none; stroke-dasharray: 2.96,1.28; stroke-dashoffset: 0; stroke: #b0b0b0; stroke-opacity: 0.4; stroke-width: 0.8"/>
     </g>
     <g id="line2d_82">
      <g>
       <use xlink:href="#m61e1300866" x="72" y="468.288" style="stroke: #000000; stroke-width: 0.6"/>
      </g>
     </g>
    </g>
    <g id="ytick_11">
     <g id="line2d_83">
      <path d="M 72 453.504 
L 518.4 453.504 
" clip-path="url(#p91b7847b08)" style="fill: none; stroke-dasharray: 2.96,1.28; stroke-dashoffset: 0; stroke: #b0b0b0; stroke-opacity: 0.4; stroke-width: 0.8"/>
     </g>
     <g id="line2d_84">
      <g>
       <use xlink:href="#m61e1300866" x="72" y="453.504" style="stroke: #000000; stroke-width: 0.6"/>
      </g>
     </g>
    </g>
    <g id="ytick_12">
     <g id="line2d_85">
      <path d="M 72 423.936 
L 518.4 423.936 
" clip-path="url(#p91b7847b08)" style="fill: none; stroke-dasharray: 2.96,1.28; stroke-dashoffset: 0; stroke: #b0b0b0; stroke-opacity: 0.4; stroke-width: 0.8"/>
     </g>
     <g id="line2d_86">
      <g>
       <use xlink:href="#m61e1300866" x="72" y="423.936" style="stroke: #000000; stroke-width: 0.6"/>
      </g>
     </g>
    </g>
    <g id="ytick_13">
     <g id="line2d_87">
      <path d="M 72 409.152 
L 518.4 409.152 
" clip-path="url(#p91b7847b08)" style="fill: none; stroke-dasharray: 2.96,1.28; stroke-dashoffset: 0; stroke: #b0b0b0; stroke-opacity: 0.4; stroke-width: 0.8"/>
     </g>
     <g id="line2d_88">
      <g>
       <use xlink:href="#m61e1300866" x="72" y="409.152" style="stroke: #000000; stroke-width: 0.6"/>
      </g>
     </g>
    </g>
    <g id="ytick_14">
     <g id="line2d_89">
      <path d="M 72 394.368 
L 518.4 394.368 
" clip-path="url(#p91b7847b08)" style="fill: none; stroke-dasharray: 2.96,1.28; stroke-dashoffset: 0; stroke: #b0b0b0; stroke-opacity: 0.4; stroke-width: 0.8"/>
     </g>
     <g id="line2d_90">
      <g>
       <use xlink:href="#m61e1300866" x="72" y="394.368" style="stroke: #000000; stroke-width: 0.6"/>
      </g>
     </g>
    </g>
    <g id="ytick_15">
     <g id="line2d_91">
      <path d="M 72 379.584 
L 518.4 379.584 
" clip-path="url(#p91b7847b08)" style="fill: none; stroke-dasharray: 2.96,1.28; stroke-dashoffset: 0; stroke: #b0b0b0; stroke-opacity: 0.4; stroke-width: 0.8"/>
     </g>
     <g id="line2d_92">
      <g>
       <use xlink:href="#m61e1300866" x="72" y="379.584" style="stroke: #000000; stroke-width: 0.6"/>
      </g>
     </g>
    </g>
    <g id="ytick_16">
     <g id="line2d_93">
      <path d="M 72 350.016 
L 518.4 350.016 
" clip-path="url(#p91b7847b08)" style="fill: none; stroke-dasharray: 2.96,1.28; stroke-dashoffset: 0; stroke: #b0b0b0; stroke-opacity: 0.4; stroke-width: 0.8"/>
     </g>
     <g id="line2d_94">
      <g>
       <use xlink:href="#m61e1300866" x="72" y="350.016" style="stroke: #000000; stroke-width: 0.6"/>
      </g>
     </g>
    </g>
    <g id="ytick_17">
     <g id="line2d_95">
      <path d="M 72 335.232 
L 518.4 335.232 
" clip-path="url(#p91b7847b08)" style="fill: none; stroke-dasharray: 2.96,1.28; stroke-dashoffset: 0; stroke: #b0b0b0; stroke-opacity: 0.4; stroke-width: 0.8"/>
     </g>
     <g id="line2d_96">
      <g>
       <use xlink:href="#m61e1300866" x="72" y="335.232" style="stroke: #000000; stroke-width: 0.6"/>
      </g>
     </g>
    </g>
    <g id="ytick_18">
     <g id="line2d_97">
      <path d="M 72 320.448 
L 518.4 320.448 
" clip-path="url(#p91b7847b08)" style="fill: none; stroke-dasharray: 2.96,1.28; stroke-dashoffset: 0; stroke: #b0b0b0; stroke-opacity: 0.4; stroke-width: 0.8"/>
     </g>
     <g id="line2d_98">
      <g>
       <use xlink:href="#m61e1300866" x="72" y="320.448" style="stroke: #000000; stroke-width: 0.6"/>
      </g>
     </g>
    </g>
    <g id="ytick_19">
     <g id="line2d_99">
      <path d="M 72 305.664 
L 518.4 305.664 
" clip-path="url(#p91b7847b08)" style="fill: none; stroke-dasharray: 2.96,1.28; stroke-dashoffset: 0; stroke: #b0b0b0; stroke-opacity: 0.4; stroke-width: 0.8"/>
     </g>
     <g id="line2d_100">
      <g>
       <use xlink:href="#m61e1300866" x="72" y="305.664" style="stroke: #000000; stroke-width: 0.6"/>
      </g>
     </g>
    </g>
    <g id="ytick_20">
     <g id="line2d_101">
      <path d="M 72 276.096 
L 518.4 276.096 
" clip-path="url(#p91b7847b08)" style="fill: none; stroke-dasharray: 2.96,1.28; stroke-dashoffset: 0; stroke: #b0b0b0; stroke-opacity: 0.4; stroke-width: 0.8"/>
     </g>
     <g id="line2d_102">
      <g>
       <use xlink:href="#m61e1300866" x="72" y="276.096" style="stroke: #000000; stroke-width: 0.6"/>
      </g>
     </g>
    </g>
    <g id="ytick_21">
     <g id="line2d_103">
      <path d="M 72 261.312 
L 518.4 261.312 
" clip-path="url(#p91b7847b08)" style="fill: none; stroke-dasharray: 2.96,1.28; stroke-dashoffset: 0; stroke: #b0b0b0; stroke-opacity: 0.4; stroke-width: 0.8"/>
     </g>
     <g id="line2d_104">
      <g>
       <use xlink:href="#m61e1300866" x="72" y="261.312" style="stroke: #000000; stroke-width: 0.6"/>
      </g>
     </g>
    </g>
    <g id="ytick_22">
     <g id="line2d_105">
      <path d="M 72 246.528 
L 518.4 246.528 
" clip-path="url(#p91b7847b08)" style="fill: none; stroke-dasharray: 2.96,1.28; stroke-dashoffset: 0; stroke: #b0b0b0; stroke-opacity: 0.4; stroke-width: 0.8"/>
     </g>
     <g id="line2d_106">
      <g>
       <use xlink:href="#m61e1300866" x="72" y="246.528" style="stroke: #000000; stroke-width: 0.6"/>
      </g>
     </g>
    </g>
    <g id="ytick_23">
     <g id="line2d_107">
      <path d="M 72 231.744 
L 518.4 231.744 
" clip-path="url(#p91b7847b08)" style="fill: none; stroke-dasharray: 2.96,1.28; stroke-dashoffset: 0; stroke: #b0b0b0; stroke-opacity: 0.4; stroke-width: 0.8"/>
     </g>
     <g id="line2d_108">
      <g>
       <use xlink:href="#m61e1300866" x="72" y="231.744" style="stroke: #000000; stroke-width: 0.6"/>
      </g>
     </g>
    </g>
    <g id="ytick_24">
     <g id="line2d_109">
      <path d="M 72 202.176 
L 518.4 202.176 
" clip-path="url(#p91b7847b08)" style="fill: none; stroke-dasharray: 2.96,1.28; stroke-dashoffset: 0; stroke: #b0b0b0; stroke-opacity: 0.4; stroke-width: 0.8"/>
     </g>
     <g id="line2d_110">
      <g>
       <use xlink:href="#m61e1300866" x="72" y="202.176" style="stroke: #000000; stroke-width: 0.6"/>
      </g>
     </g>
    </g>
    <g id="ytick_25">
     <g id="line2d_111">
      <path d="M 72 187.392 
L 518.4 187.392 
" clip-path="url(#p91b7847b08)" style="fill: none; stroke-dasharray: 2.96,1.28; stroke-dashoffset: 0; stroke: #b0b0b0; stroke-opacity: 0.4; stroke-width: 0.8"/>
     </g>
     <g id="line2d_112">
      <g>
       <use xlink:href="#m61e1300866" x="72" y="187.392" style="stroke: #000000; stroke-width: 0.6"/>
      </g>
     </g>
    </g>
    <g id="ytick_26">
     <g id="line2d_113">
      <path d="M 72 172.608 
L 518.4 172.608 
" clip-path="url(#p91b7847b08)" style="fill: none; stroke-dasharray: 2.96,1.28; stroke-dashoffset: 0; stroke: #b0b0b0; stroke-opacity: 0.4; stroke-width: 0.8"/>
     </g>
     <g id="line2d_114">
      <g>
       <use xlink:href="#m61e1300866" x="72" y="172.608" style="stroke: #000000; stroke-width: 0.6"/>
      </g>
     </g>
    </g>
    <g id="ytick_27">
     <g id="line2d_115">
      <path d="M 72 157.824 
L 518.4 157.824 
" clip-path="url(#p91b7847b08)" style="fill: none; stroke-dasharray: 2.96,1.28; stroke-dashoffset: 0; stroke: #b0b0b0; stroke-opacity: 0.4; stroke-width: 0.8"/>
     </g>
     <g id="line2d_116">
      <g>
       <use xlink:href="#m61e1300866" x="72" y="157.824" style="stroke: #000000; stroke-width: 0.6"/>
      </g>
     </g>
    </g>
    <g id="ytick_28">
     <g id="line2d_117">
      <path d="M 72 128.256 
L 518.4 128.256 
" clip-path="url(#p91b7847b08)" style="fill: none; stroke-dasharray: 2.96,1.28; stroke-dashoffset: 0; stroke: #b0b0b0; stroke-opacity: 0.4; stroke-width: 0.8"/>
     </g>
     <g id="line2d_118">
      <g>
       <use xlink:href="#m61e1300866" x="72" y="128.256" style="stroke: #000000; stroke-width: 0.6"/>
      </g>
     </g>
    </g>
    <g id="ytick_29">
     <g id="line2d_119">
      <path d="M 72 113.472 
L 518.4 113.472 
" clip-path="url(#p91b7847b08)" style="fill: none; stroke-dasharray: 2.96,1.28; stroke-dashoffset: 0; stroke: #b0b0b0; stroke-opacity: 0.4; stroke-width: 0.8"/>
     </g>
     <g id="line2d_120">
      <g>
       <use xlink:href="#m61e1300866" x="72" y="113.472" style="stroke: #000000; stroke-width: 0.6"/>
      </g>
     </g>
    </g>
    <g id="ytick_30">
     <g id="line2d_121">
      <path d="M 72 98.688 
L 518.4 98.688 
" clip-path="url(#p91b7847b08)" style="fill: none; stroke-dasharray: 2.96,1.28; stroke-dashoffset: 0; stroke: #b0b0b0; stroke-opacity: 0.4; stroke-width: 0.8"/>
     </g>
     <g id="line2d_122">
      <g>
       <use xlink:href="#m61e1300866" x="72" y="98.688" style="stroke: #000000; stroke-width: 0.6"/>
      </g>
     </g>
    </g>
    <g id="ytick_31">
     <g id="line2d_123">
      <path d="M 72 83.904 
L 518.4 83.904 
" clip-path="url(#p91b7847b08)" style="fill: none; stroke-dasharray: 2.96,1.28; stroke-dashoffset: 0; stroke: #b0b0b0; stroke-opacity: 0.4; stroke-width: 0.8"/>
     </g>
     <g id="line2d_124">
      <g>
       <use xlink:href="#m61e1300866" x="72" y="83.904" style="stroke: #000000; stroke-width: 0.6"/>
      </g>
     </g>
    </g>
    <g id="text_16">
     <!-- $y$ -->
     <g transform="translate(34.617187 293.88) rotate(-90) scale(0.1 -0.1)">
      <defs>
       <path id="DejaVuSans-Oblique-79" d="M 1588 -325 
Q 1188 -997 936 -1164 
Q 684 -1331 294 -1331 
L -159 -1331 
L -63 -850 
L 269 -850 
Q 509 -850 678 -719 
Q 847 -588 1056 -206 
L 1234 128 
L 459 3500 
L 1069 3500 
L 1650 819 
L 3256 3500 
L 3859 3500 
L 1588 -325 
z
" transform="scale(0.015625)"/>
      </defs>
      <use xlink:href="#DejaVuSans-Oblique-79" transform="translate(0 0.3125)"/>
     </g>
    </g>
   </g>
   <g id="line2d_125">
    <path d="M 295.2 290.88 
L 312.009768 257.69119 
L 321.269231 239.879113 
L 328.604322 226.196598 
L 335.854861 213.168561 
L 341.22623 203.90662 
L 346.532062 195.139868 
L 351.764802 186.91822 
L 356.916999 179.288486 
L 361.981318 172.294107 
L 365.305142 168.003984 
L 368.584598 164.024878 
L 371.81761 160.366861 
L 375.002131 157.039191 
L 378.136147 154.050292 
L 381.217673 151.407729 
L 384.24476 149.118191 
L 387.215492 147.187472 
L 390.127988 145.62046 
L 392.980406 144.421121 
L 395.77094 143.592491 
L 398.497824 143.136667 
L 401.159332 143.054803 
L 403.75378 143.347106 
L 406.279526 144.012836 
L 408.734971 145.050308 
L 411.118561 146.456897 
L 413.428788 148.229041 
L 415.664189 150.362255 
L 417.82335 152.851141 
L 419.904905 155.689397 
L 421.907536 158.869841 
L 423.829975 162.384422 
L 425.671006 166.224243 
L 427.429463 170.379587 
L 429.104235 174.839934 
L 430.69426 179.593996 
L 432.198533 184.629739 
L 433.616101 189.934417 
L 435.577935 198.366137 
L 437.339884 207.324592 
L 438.899441 216.758776 
L 440.254384 226.614975 
L 441.402783 236.837071 
L 442.343005 247.366866 
L 443.073709 258.144405 
L 443.593856 269.108327 
L 443.902705 280.196208 
L 443.999816 291.344917 
L 443.885051 302.49098 
L 443.558573 313.570934 
L 443.020847 324.521696 
L 442.272639 335.280917 
L 441.315014 345.787337 
L 440.149336 355.981139 
L 438.777264 365.804282 
L 437.200753 375.200838 
L 435.422046 384.117307 
L 433.443678 392.502923 
L 432.015221 397.774704 
L 430.500176 402.77592 
L 428.899502 407.49391 
L 427.21421 411.916734 
L 425.445369 416.033197 
L 423.594097 419.832878 
L 421.661567 423.306161 
L 419.649 426.444254 
L 417.557672 429.239214 
L 415.388905 431.683967 
L 413.144072 433.772324 
L 410.824594 435.499 
L 408.431938 436.859625 
L 405.96762 437.850754 
L 403.433198 438.469878 
L 400.830277 438.715431 
L 398.160504 438.586791 
L 395.425568 438.084284 
L 392.627202 437.209181 
L 389.767174 435.963698 
L 386.847297 434.350987 
L 383.869417 432.375129 
L 380.83542 430.041128 
L 377.747225 427.354889 
L 374.606787 424.323212 
L 371.416093 420.953771 
L 368.177164 417.255094 
L 364.892048 413.236544 
L 361.562825 408.908291 
L 356.490906 401.859394 
L 351.331715 394.178626 
L 346.092597 385.90972 
L 340.781014 377.099755 
L 335.404528 367.798892 
L 328.148164 354.726013 
L 320.808403 341.007129 
L 311.544744 323.162057 
L 298.475294 297.386749 
L 277.925374 256.78575 
L 268.670199 239.007372 
L 261.339851 225.361768 
L 254.095208 212.379089 
L 248.729009 203.156436 
L 243.428981 194.433244 
L 238.20267 186.259179 
L 233.057517 178.680781 
L 228.000849 171.741197 
L 224.682456 167.489373 
L 221.408693 163.549869 
L 218.181632 159.932655 
L 215.003314 156.646889 
L 211.875752 153.700886 
L 208.800924 151.102104 
L 205.780778 148.857119 
L 202.817223 146.971615 
L 199.912137 145.450365 
L 197.067356 144.297218 
L 194.284683 143.515093 
L 191.565877 143.10597 
L 188.91266 143.070885 
L 186.326711 143.409926 
L 183.809667 144.122235 
L 181.36312 145.20601 
L 178.988618 146.658506 
L 176.687666 148.476049 
L 174.461718 150.654036 
L 172.312184 153.186956 
L 170.240423 156.068396 
L 168.247749 159.291065 
L 166.33542 162.846804 
L 164.504648 166.726614 
L 162.756591 170.920675 
L 161.092356 175.418369 
L 159.512996 180.208314 
L 158.019511 185.278385 
L 156.612845 190.615749 
L 154.667565 199.093241 
L 152.92239 208.093328 
L 151.379804 217.564766 
L 150.042003 227.453631 
L 148.910893 237.703618 
L 147.988084 248.256369 
L 147.274891 259.051801 
L 146.772328 270.028449 
L 146.481111 281.123818 
L 146.401655 292.274733 
L 146.534074 303.417708 
L 146.878178 314.489298 
L 147.433477 325.426467 
L 148.199181 336.166943 
L 149.1742 346.649574 
L 150.357145 356.814678 
L 151.746332 366.604377 
L 153.339783 375.962933 
L 155.135229 384.837064 
L 157.130113 393.176242 
L 158.569443 398.414919 
L 160.095245 403.381409 
L 161.706554 408.063142 
L 163.402348 412.448267 
L 165.181555 416.525686 
L 167.04305 420.285077 
L 168.985653 423.716924 
L 171.008135 426.812542 
L 173.109217 429.564095 
L 175.287568 431.964619 
L 177.541811 434.008037 
L 179.870517 435.689176 
L 182.272214 437.003783 
L 184.745382 437.948529 
L 187.288455 438.521024 
L 189.899823 438.719817 
L 192.577835 438.544407 
L 195.320795 437.995236 
L 198.126967 437.073695 
L 200.994575 435.782117 
L 203.921804 434.12377 
L 206.906803 432.102853 
L 209.947681 429.72448 
L 213.042513 426.994671 
L 216.189343 423.920336 
L 219.386177 420.509257 
L 222.630992 416.770068 
L 225.921736 412.712232 
L 229.256325 408.346021 
L 234.335794 401.242884 
L 239.501928 393.511386 
L 244.74737 385.19555 
L 250.064652 376.34272 
L 255.446203 367.003302 
L 262.70832 353.886098 
L 270.052678 340.131387 
L 279.320441 322.254026 
L 292.392545 296.457692 
L 312.939312 255.881658 
L 322.190108 238.137683 
L 329.515642 224.529529 
L 336.754317 211.592722 
L 342.115292 202.409722 
L 347.409464 193.730435 
L 352.629294 185.604277 
L 357.767352 178.077513 
L 362.816319 171.192999 
L 366.129247 166.979643 
L 369.397285 163.079896 
L 372.618365 159.50363 
L 375.790448 156.259897 
L 378.911526 153.356906 
L 381.979624 150.802007 
L 384.9928 148.601666 
L 387.949148 146.761451 
L 390.846796 145.286022 
L 393.683911 144.179112 
L 396.458696 143.443523 
L 399.169396 143.081118 
L 401.814296 143.092813 
L 404.39172 143.478579 
L 406.900039 144.23744 
L 409.337664 145.367474 
L 411.703053 146.865821 
L 413.994709 148.728689 
L 416.211181 150.951363 
L 418.351067 153.528217 
L 420.413012 156.452728 
L 422.395712 159.717494 
L 424.297911 163.314252 
L 426.118406 167.233896 
L 427.856044 171.466508 
L 429.509726 176.001372 
L 431.078405 180.82701 
L 432.561089 185.931209 
L 433.956839 191.301048 
L 435.885545 199.823976 
L 437.613929 208.865338 
L 439.13953 218.373657 
L 440.460175 228.294796 
L 441.573984 238.572268 
L 442.47937 249.147559 
L 443.175046 259.960457 
L 443.66002 270.949397 
L 443.933602 282.051814 
L 443.995401 293.204494 
L 443.845331 304.34394 
L 443.483605 315.406728 
L 442.910737 326.329871 
L 442.127544 337.051178 
L 441.135141 347.509605 
L 439.934941 357.645608 
L 438.528652 367.401475 
L 436.918278 376.721662 
L 435.106111 385.553103 
L 433.094732 393.845515 
L 431.644541 399.05088 
L 430.107997 403.982449 
L 428.486071 408.627739 
L 426.77979 412.974992 
L 424.990234 417.013205 
L 423.118536 420.732156 
L 421.16588 424.122433 
L 419.133501 427.175454 
L 417.022687 429.883491 
L 414.834773 432.23969 
L 412.571144 434.238087 
L 410.233232 435.873624 
L 407.822517 437.142161 
L 405.340524 438.040488 
L 402.788826 438.566329 
L 400.169036 438.718355 
L 397.482812 438.496181 
L 394.731855 437.900368 
L 391.917905 436.932426 
L 389.042744 435.594804 
L 386.108192 433.890887 
L 383.116104 431.82499 
L 380.068376 429.40234 
L 376.966936 426.629069 
L 373.813746 423.512198 
L 370.610803 420.059616 
L 367.360134 416.280061 
L 364.063795 412.183101 
L 360.723874 407.779104 
L 355.636904 400.622008 
L 350.463879 392.840087 
L 345.212163 384.477648 
L 339.889235 375.582305 
L 334.502673 366.204702 
L 327.234875 353.043691 
L 319.885992 339.253698 
L 310.614216 321.344755 
L 297.539588 295.528414 
L 278.855256 258.597943 
L 269.591597 240.752871 
L 262.251836 227.033987 
L 254.995472 213.961108 
L 249.618986 204.660245 
L 244.307403 195.85028 
L 239.068285 187.581374 
L 233.909094 179.900606 
L 228.837175 172.851709 
L 225.507952 168.523456 
L 222.222836 164.504906 
L 218.983907 160.806229 
L 215.793213 157.436788 
L 212.652775 154.405111 
L 209.56458 151.718872 
L 206.530583 149.384871 
L 203.552703 147.409013 
L 200.632826 145.796302 
L 197.772798 144.550819 
L 194.974432 143.675716 
L 192.239496 143.173209 
L 189.569723 143.044569 
L 186.966802 143.290122 
L 184.43238 143.909246 
L 181.968062 144.900375 
L 179.575406 146.261 
L 177.255928 147.987676 
L 175.011095 150.076033 
L 172.842328 152.520786 
L 170.751 155.315746 
L 168.738433 158.453839 
L 166.805903 161.927122 
L 164.954631 165.726803 
L 163.18579 169.843266 
L 161.500498 174.26609 
L 159.899824 178.98408 
L 158.384779 183.985296 
L 156.956322 189.257077 
L 154.977954 197.642693 
L 153.199247 206.559162 
L 151.622736 215.955718 
L 150.250664 225.778861 
L 149.084986 235.972663 
L 148.127361 246.479083 
L 147.379153 257.238304 
L 146.841427 268.189066 
L 146.514949 279.26902 
L 146.400184 290.415083 
L 146.497295 301.563792 
L 146.806144 312.651673 
L 147.326291 323.615595 
L 148.056995 334.393134 
L 148.997217 344.922929 
L 150.145616 355.145025 
L 151.500559 365.001224 
L 153.060116 374.435408 
L 154.822065 383.393863 
L 156.783899 391.825583 
L 158.201467 397.130261 
L 159.70574 402.166004 
L 161.295765 406.920066 
L 162.970537 411.380413 
L 164.728994 415.535757 
L 166.570025 419.375578 
L 168.492464 422.890159 
L 170.495095 426.070603 
L 172.57665 428.908859 
L 174.735811 431.397745 
L 176.971212 433.530959 
L 179.281439 435.303103 
L 181.665029 436.709692 
L 184.120474 437.747164 
L 186.64622 438.412894 
L 189.240668 438.705197 
L 191.902176 438.623333 
L 194.62906 438.167509 
L 197.419594 437.338879 
L 200.272012 436.13954 
L 203.184508 434.572528 
L 206.15524 432.641809 
L 209.182327 430.352271 
L 212.263853 427.709708 
L 215.397869 424.720809 
L 218.58239 421.393139 
L 221.815402 417.735122 
L 225.094858 413.756016 
L 228.418682 409.465893 
L 233.483001 402.471514 
L 238.635198 394.84178 
L 243.867938 386.620132 
L 249.17377 377.85338 
L 254.545139 368.591439 
L 261.795678 355.563402 
L 269.130769 341.880887 
L 278.390232 324.06881 
L 291.456899 298.315549 
L 295.2 290.88 
L 295.2 290.88 
" clip-path="url(#p91b7847b08)" style="fill: none; stroke: #1f77b4; stroke-width: 1.5; stroke-linecap: square"/>
   </g>
   <g id="patch_3">
    <path d="M 72 512.64 
L 72 69.12 
" style="fill: none; stroke: #000000; stroke-width: 0.8; stroke-linejoin: miter; stroke-linecap: square"/>
   </g>
   <g id="patch_4">
    <path d="M 518.4 512.64 
L 518.4 69.12 
" style="fill: none; stroke: #000000; stroke-width: 0.8; stroke-linejoin: miter; stroke-linecap: square"/>
   </g>
   <g id="patch_5">
    <path d="M 72 512.64 
L 518.4 512.64 
" style="fill: none; stroke: #000000; stroke-width: 0.8; stroke-linejoin: miter; stroke-linecap: square"/>
   </g>
   <g id="patch_6">
    <path d="M 72 69.12 
L 518.4 69.12 
" style="fill: none; stroke: #000000; stroke-width: 0.8; stroke-linejoin: miter; stroke-linecap: square"/>
   </g>
   <g id="text_17">
    <!-- Параметрический график -->
    <g transform="translate(212.946562 63.12) scale(0.12 -0.12)">
     <defs>
      <path id="DejaVuSans-41f" d="M 4184 4666 
L 4184 0 
L 3553 0 
L 3553 4134 
L 1259 4134 
L 1259 0 
L 628 0 
L 628 4666 
L 4184 4666 
z
" transform="scale(0.015625)"/>
      <path id="DejaVuSans-430" d="M 2194 1759 
Q 1497 1759 1228 1600 
Q 959 1441 959 1056 
Q 959 750 1161 570 
Q 1363 391 1709 391 
Q 2188 391 2477 730 
Q 2766 1069 2766 1631 
L 2766 1759 
L 2194 1759 
z
M 3341 1997 
L 3341 0 
L 2766 0 
L 2766 531 
Q 2569 213 2275 61 
Q 1981 -91 1556 -91 
Q 1019 -91 701 211 
Q 384 513 384 1019 
Q 384 1609 779 1909 
Q 1175 2209 1959 2209 
L 2766 2209 
L 2766 2266 
Q 2766 2663 2505 2880 
Q 2244 3097 1772 3097 
Q 1472 3097 1187 3025 
Q 903 2953 641 2809 
L 641 3341 
Q 956 3463 1253 3523 
Q 1550 3584 1831 3584 
Q 2591 3584 2966 3190 
Q 3341 2797 3341 1997 
z
" transform="scale(0.015625)"/>
      <path id="DejaVuSans-440" d="M 1159 525 
L 1159 -1331 
L 581 -1331 
L 581 3500 
L 1159 3500 
L 1159 2969 
Q 1341 3281 1617 3432 
Q 1894 3584 2278 3584 
Q 2916 3584 3314 3078 
Q 3713 2572 3713 1747 
Q 3713 922 3314 415 
Q 2916 -91 2278 -91 
Q 1894 -91 1617 61 
Q 1341 213 1159 525 
z
M 3116 1747 
Q 3116 2381 2855 2742 
Q 2594 3103 2138 3103 
Q 1681 3103 1420 2742 
Q 1159 2381 1159 1747 
Q 1159 1113 1420 752 
Q 1681 391 2138 391 
Q 2594 391 2855 752 
Q 3116 1113 3116 1747 
z
" transform="scale(0.015625)"/>
      <path id="DejaVuSans-43c" d="M 581 3500 
L 1422 3500 
L 2416 1156 
L 3413 3500 
L 4247 3500 
L 4247 0 
L 3669 0 
L 3669 2950 
L 2703 672 
L 2128 672 
L 1159 2950 
L 1159 0 
L 581 0 
L 581 3500 
z
" transform="scale(0.015625)"/>
      <path id="DejaVuSans-435" d="M 3597 1894 
L 3597 1613 
L 953 1613 
Q 991 1019 1311 708 
Q 1631 397 2203 397 
Q 2534 397 2845 478 
Q 3156 559 3463 722 
L 3463 178 
Q 3153 47 2828 -22 
Q 2503 -91 2169 -91 
Q 1331 -91 842 396 
Q 353 884 353 1716 
Q 353 2575 817 3079 
Q 1281 3584 2069 3584 
Q 2775 3584 3186 3129 
Q 3597 2675 3597 1894 
z
M 3022 2063 
Q 3016 2534 2758 2815 
Q 2500 3097 2075 3097 
Q 1594 3097 1305 2825 
Q 1016 2553 972 2059 
L 3022 2063 
z
" transform="scale(0.015625)"/>
      <path id="DejaVuSans-442" d="M 188 3500 
L 3541 3500 
L 3541 3041 
L 2147 3041 
L 2147 0 
L 1581 0 
L 1581 3041 
L 188 3041 
L 188 3500 
z
" transform="scale(0.015625)"/>
      <path id="DejaVuSans-438" d="M 3578 3500 
L 3578 0 
L 3006 0 
L 3006 2809 
L 1319 0 
L 581 0 
L 581 3500 
L 1153 3500 
L 1153 697 
L 2838 3500 
L 3578 3500 
z
" transform="scale(0.015625)"/>
      <path id="DejaVuSans-447" d="M 2625 0 
L 2625 1472 
L 1553 1472 
Q 1075 1472 756 1769 
Q 469 2038 469 2613 
L 469 3500 
L 1044 3500 
L 1044 2666 
Q 1044 2300 1206 2116 
Q 1372 1931 1697 1931 
L 2625 1931 
L 2625 3500 
L 3200 3500 
L 3200 0 
L 2625 0 
z
" transform="scale(0.015625)"/>
      <path id="DejaVuSans-441" d="M 3122 3366 
L 3122 2828 
Q 2878 2963 2633 3030 
Q 2388 3097 2138 3097 
Q 1578 3097 1268 2742 
Q 959 2388 959 1747 
Q 959 1106 1268 751 
Q 1578 397 2138 397 
Q 2388 397 2633 464 
Q 2878 531 3122 666 
L 3122 134 
Q 2881 22 2623 -34 
Q 2366 -91 2075 -91 
Q 1284 -91 818 406 
Q 353 903 353 1747 
Q 353 2603 823 3093 
Q 1294 3584 2113 3584 
Q 2378 3584 2631 3529 
Q 2884 3475 3122 3366 
z
" transform="scale(0.015625)"/>
      <path id="DejaVuSans-43a" d="M 581 3500 
L 1153 3500 
L 1153 1856 
L 2775 3500 
L 3481 3500 
L 2144 2147 
L 3653 0 
L 3009 0 
L 1769 1766 
L 1153 1141 
L 1153 0 
L 581 0 
L 581 3500 
z
" transform="scale(0.015625)"/>
      <path id="DejaVuSans-439" d="M 3578 3500 
L 3578 0 
L 3006 0 
L 3006 2809 
L 1319 0 
L 581 0 
L 581 3500 
L 1153 3500 
L 1153 697 
L 2838 3500 
L 3578 3500 
z
M 1102 4833 
L 1471 4833 
Q 1505 4599 1656 4481 
Q 1808 4364 2080 4364 
Q 2349 4364 2499 4480 
Q 2649 4596 2689 4833 
L 3058 4833 
Q 3027 4386 2780 4161 
Q 2533 3936 2080 3936 
Q 1627 3936 1380 4161 
Q 1133 4386 1102 4833 
z
" transform="scale(0.015625)"/>
      <path id="DejaVuSans-20" transform="scale(0.015625)"/>
      <path id="DejaVuSans-433" d="M 581 0 
L 581 3500 
L 3050 3500 
L 3050 3041 
L 1159 3041 
L 1159 0 
L 581 0 
z
" transform="scale(0.015625)"/>
      <path id="DejaVuSans-444" d="M 947 1747 
Q 947 1013 1173 702 
Q 1400 391 1784 391 
Q 2091 391 2447 916 
L 2447 2578 
Q 2091 3103 1784 3103 
Q 1400 3103 1173 2792 
Q 947 2481 947 1747 
z
M 2447 -1331 
L 2447 447 
Q 2269 153 2064 31 
Q 1859 -91 1600 -91 
Q 1078 -91 714 392 
Q 350 875 350 1734 
Q 350 2594 714 3089 
Q 1078 3584 1600 3584 
Q 1859 3584 2064 3465 
Q 2269 3347 2447 3053 
L 2447 4666 
L 3025 4666 
L 3025 3053 
Q 3203 3347 3408 3465 
Q 3613 3584 3872 3584 
Q 4394 3584 4758 3089 
Q 5122 2594 5122 1734 
Q 5122 875 4758 392 
Q 4394 -91 3872 -91 
Q 3613 -91 3408 31 
Q 3203 153 3025 447 
L 3025 -1331 
L 2447 -1331 
z
M 4525 1747 
Q 4525 2481 4298 2792 
Q 4072 3103 3688 3103 
Q 3381 3103 3025 2578 
L 3025 916 
Q 3381 391 3688 391 
Q 4072 391 4298 702 
Q 4525 1013 4525 1747 
z
" transform="scale(0.015625)"/>
     </defs>
     <use xlink:href="#DejaVuSans-41f"/>
     <use xlink:href="#DejaVuSans-430" x="75.195312"/>
     <use xlink:href="#DejaVuSans-440" x="136.474609"/>
     <use xlink:href="#DejaVuSans-430" x="199.951172"/>
     <use xlink:href="#DejaVuSans-43c" x="261.230469"/>
     <use xlink:href="#DejaVuSans-435" x="336.669922"/>
     <use xlink:href="#DejaVuSans-442" x="398.193359"/>
     <use xlink:href="#DejaVuSans-440" x="456.445312"/>
     <use xlink:href="#DejaVuSans-438" x="519.921875"/>
     <use xlink:href="#DejaVuSans-447" x="584.912109"/>
     <use xlink:href="#DejaVuSans-435" x="643.994141"/>
     <use xlink:href="#DejaVuSans-441" x="705.517578"/>
     <use xlink:href="#DejaVuSans-43a" x="760.498047"/>
     <use xlink:href="#DejaVuSans-438" x="820.898438"/>
     <use xlink:href="#DejaVuSans-439" x="885.888672"/>
     <use xlink:href="#DejaVuSans-20" x="950.878906"/>
     <use xlink:href="#DejaVuSans-433" x="982.666016"/>
     <use xlink:href="#DejaVuSans-440" x="1035.205078"/>
     <use xlink:href="#DejaVuSans-430" x="1098.681641"/>
     <use xlink:href="#DejaVuSans-444" x="1159.960938"/>
     <use xlink:href="#DejaVuSans-438" x="1245.458984"/>
     <use xlink:href="#DejaVuSans-43a" x="1310.449219"/>
    </g>
   </g>
   <g id="legend_1">
    <g id="patch_7">
     <path d="M 79 91.82 
L 362.3 91.82 
Q 364.3 91.82 364.3 89.82 
L 364.3 76.12 
Q 364.3 74.12 362.3 74.12 
L 79 74.12 
Q 77 74.12 77 76.12 
L 77 89.82 
Q 77 91.82 79 91.82 
z
" style="fill: #ffffff; opacity: 0.8; stroke: #cccccc; stroke-linejoin: miter"/>
    </g>
    <g id="line2d_126">
     <path d="M 81 82.22 
L 91 82.22 
L 101 82.22 
" style="fill: none; stroke: #1f77b4; stroke-width: 1.5; stroke-linecap: square"/>
    </g>
    <g id="text_18">
     <!-- Параметрический график: $x = \sin(2t)$, $y = \sin(4t)$ -->
     <g transform="translate(109 85.72) scale(0.1 -0.1)">
      <defs>
       <path id="DejaVuSans-3a" d="M 750 794 
L 1409 794 
L 1409 0 
L 750 0 
L 750 794 
z
M 750 3309 
L 1409 3309 
L 1409 2516 
L 750 2516 
L 750 3309 
z
" transform="scale(0.015625)"/>
       <path id="DejaVuSans-3d" d="M 678 2906 
L 4684 2906 
L 4684 2381 
L 678 2381 
L 678 2906 
z
M 678 1631 
L 4684 1631 
L 4684 1100 
L 678 1100 
L 678 1631 
z
" transform="scale(0.015625)"/>
       <path id="DejaVuSans-73" d="M 2834 3397 
L 2834 2853 
Q 2591 2978 2328 3040 
Q 2066 3103 1784 3103 
Q 1356 3103 1142 2972 
Q 928 2841 928 2578 
Q 928 2378 1081 2264 
Q 1234 2150 1697 2047 
L 1894 2003 
Q 2506 1872 2764 1633 
Q 3022 1394 3022 966 
Q 3022 478 2636 193 
Q 2250 -91 1575 -91 
Q 1294 -91 989 -36 
Q 684 19 347 128 
L 347 722 
Q 666 556 975 473 
Q 1284 391 1588 391 
Q 1994 391 2212 530 
Q 2431 669 2431 922 
Q 2431 1156 2273 1281 
Q 2116 1406 1581 1522 
L 1381 1569 
Q 847 1681 609 1914 
Q 372 2147 372 2553 
Q 372 3047 722 3315 
Q 1072 3584 1716 3584 
Q 2034 3584 2315 3537 
Q 2597 3491 2834 3397 
z
" transform="scale(0.015625)"/>
       <path id="DejaVuSans-69" d="M 603 3500 
L 1178 3500 
L 1178 0 
L 603 0 
L 603 3500 
z
M 603 4863 
L 1178 4863 
L 1178 4134 
L 603 4134 
L 603 4863 
z
" transform="scale(0.015625)"/>
       <path id="DejaVuSans-6e" d="M 3513 2113 
L 3513 0 
L 2938 0 
L 2938 2094 
Q 2938 2591 2744 2837 
Q 2550 3084 2163 3084 
Q 1697 3084 1428 2787 
Q 1159 2491 1159 1978 
L 1159 0 
L 581 0 
L 581 3500 
L 1159 3500 
L 1159 2956 
Q 1366 3272 1645 3428 
Q 1925 3584 2291 3584 
Q 2894 3584 3203 3211 
Q 3513 2838 3513 2113 
z
" transform="scale(0.015625)"/>
       <path id="DejaVuSans-28" d="M 1984 4856 
Q 1566 4138 1362 3434 
Q 1159 2731 1159 2009 
Q 1159 1288 1364 580 
Q 1569 -128 1984 -844 
L 1484 -844 
Q 1016 -109 783 600 
Q 550 1309 550 2009 
Q 550 2706 781 3412 
Q 1013 4119 1484 4856 
L 1984 4856 
z
" transform="scale(0.015625)"/>
       <path id="DejaVuSans-32" d="M 1228 531 
L 3431 531 
L 3431 0 
L 469 0 
L 469 531 
Q 828 903 1448 1529 
Q 2069 2156 2228 2338 
Q 2531 2678 2651 2914 
Q 2772 3150 2772 3378 
Q 2772 3750 2511 3984 
Q 2250 4219 1831 4219 
Q 1534 4219 1204 4116 
Q 875 4013 500 3803 
L 500 4441 
Q 881 4594 1212 4672 
Q 1544 4750 1819 4750 
Q 2544 4750 2975 4387 
Q 3406 4025 3406 3419 
Q 3406 3131 3298 2873 
Q 3191 2616 2906 2266 
Q 2828 2175 2409 1742 
Q 1991 1309 1228 531 
z
" transform="scale(0.015625)"/>
       <path id="DejaVuSans-Oblique-74" d="M 2706 3500 
L 2619 3053 
L 1472 3053 
L 1100 1153 
Q 1081 1047 1072 975 
Q 1063 903 1063 863 
Q 1063 663 1183 572 
Q 1303 481 1569 481 
L 2150 481 
L 2053 0 
L 1503 0 
Q 991 0 739 200 
Q 488 400 488 806 
Q 488 878 497 964 
Q 506 1050 525 1153 
L 897 3053 
L 409 3053 
L 500 3500 
L 978 3500 
L 1172 4494 
L 1747 4494 
L 1556 3500 
L 2706 3500 
z
" transform="scale(0.015625)"/>
       <path id="DejaVuSans-29" d="M 513 4856 
L 1013 4856 
Q 1481 4119 1714 3412 
Q 1947 2706 1947 2009 
Q 1947 1309 1714 600 
Q 1481 -109 1013 -844 
L 513 -844 
Q 928 -128 1133 580 
Q 1338 1288 1338 2009 
Q 1338 2731 1133 3434 
Q 928 4138 513 4856 
z
" transform="scale(0.015625)"/>
       <path id="DejaVuSans-2c" d="M 750 794 
L 1409 794 
L 1409 256 
L 897 -744 
L 494 -744 
L 750 256 
L 750 794 
z
" transform="scale(0.015625)"/>
       <path id="DejaVuSans-34" d="M 2419 4116 
L 825 1625 
L 2419 1625 
L 2419 4116 
z
M 2253 4666 
L 3047 4666 
L 3047 1625 
L 3713 1625 
L 3713 1100 
L 3047 1100 
L 3047 0 
L 2419 0 
L 2419 1100 
L 313 1100 
L 313 1709 
L 2253 4666 
z
" transform="scale(0.015625)"/>
      </defs>
      <use xlink:href="#DejaVuSans-41f" transform="translate(0 0.015625)"/>
      <use xlink:href="#DejaVuSans-430" transform="translate(75.195312 0.015625)"/>
      <use xlink:href="#DejaVuSans-440" transform="translate(136.474609 0.015625)"/>
      <use xlink:href="#DejaVuSans-430" transform="translate(199.951172 0.015625)"/>
      <use xlink:href="#DejaVuSans-43c" transform="translate(261.230469 0.015625)"/>
      <use xlink:href="#DejaVuSans-435" transform="translate(336.669922 0.015625)"/>
      <use xlink:href="#DejaVuSans-442" transform="translate(398.193359 0.015625)"/>
      <use xlink:href="#DejaVuSans-440" transform="translate(456.445312 0.015625)"/>
      <use xlink:href="#DejaVuSans-438" transform="translate(519.921875 0.015625)"/>
      <use xlink:href="#DejaVuSans-447" transform="translate(584.912109 0.015625)"/>
      <use xlink:href="#DejaVuSans-435" transform="translate(643.994141 0.015625)"/>
      <use xlink:href="#DejaVuSans-441" transform="translate(705.517578 0.015625)"/>
      <use xlink:href="#DejaVuSans-43a" transform="translate(760.498047 0.015625)"/>
      <use xlink:href="#DejaVuSans-438" transform="translate(820.898438 0.015625)"/>
      <use xlink:href="#DejaVuSans-439" transform="translate(885.888672 0.015625)"/>
      <use xlink:href="#DejaVuSans-20" transform="translate(950.878906 0.015625)"/>
      <use xlink:href="#DejaVuSans-433" transform="translate(982.666016 0.015625)"/>
      <use xlink:href="#DejaVuSans-440" transform="translate(1035.205078 0.015625)"/>
      <use xlink:href="#DejaVuSans-430" transform="translate(1098.681641 0.015625)"/>
      <use xlink:href="#DejaVuSans-444" transform="translate(1159.960938 0.015625)"/>
      <use xlink:href="#DejaVuSans-438" transform="translate(1245.458984 0.015625)"/>
      <use xlink:href="#DejaVuSans-43a" transform="translate(1310.449219 0.015625)"/>
      <use xlink:href="#DejaVuSans-3a" transform="translate(1370.849609 0.015625)"/>
      <use xlink:href="#DejaVuSans-20" transform="translate(1404.541016 0.015625)"/>
      <use xlink:href="#DejaVuSans-Oblique-78" transform="translate(1436.328125 0.015625)"/>
      <use xlink:href="#DejaVuSans-3d" transform="translate(1514.990234 0.015625)"/>
      <use xlink:href="#DejaVuSans-73" transform="translate(1618.261719 0.015625)"/>
      <use xlink:href="#DejaVuSans-69" transform="translate(1670.361328 0.015625)"/>
      <use xlink:href="#DejaVuSans-6e" transform="translate(1698.144531 0.015625)"/>
      <use xlink:href="#DejaVuSans-28" transform="translate(1761.523438 0.015625)"/>
      <use xlink:href="#DejaVuSans-32" transform="translate(1800.537109 0.015625)"/>
      <use xlink:href="#DejaVuSans-Oblique-74" transform="translate(1864.160156 0.015625)"/>
      <use xlink:href="#DejaVuSans-29" transform="translate(1903.369141 0.015625)"/>
      <use xlink:href="#DejaVuSans-2c" transform="translate(1942.382812 0.015625)"/>
      <use xlink:href="#DejaVuSans-20" transform="translate(1974.169922 0.015625)"/>
      <use xlink:href="#DejaVuSans-Oblique-79" transform="translate(2005.957031 0.015625)"/>
      <use xlink:href="#DejaVuSans-3d" transform="translate(2084.619141 0.015625)"/>
      <use xlink:href="#DejaVuSans-73" transform="translate(2187.890625 0.015625)"/>
      <use xlink:href="#DejaVuSans-69" transform="translate(2239.990234 0.015625)"/>
      <use xlink:href="#DejaVuSans-6e" transform="translate(2267.773438 0.015625)"/>
      <use xlink:href="#DejaVuSans-28" transform="translate(2331.152344 0.015625)"/>
      <use xlink:href="#DejaVuSans-34" transform="translate(2370.166016 0.015625)"/>
      <use xlink:href="#DejaVuSans-Oblique-74" transform="translate(2433.789062 0.015625)"/>
      <use xlink:href="#DejaVuSans-29" transform="translate(2472.998047 0.015625)"/>
     </g>
    </g>
   </g>
  </g>
 </g>
 <defs>
  <clipPath id="p91b7847b08">
   <rect x="72" y="69.12" width="446.4" height="443.52"/>
  </clipPath>
 </defs>
</svg>
